<svg viewBox="0 0 1920 1080" width="1920" height="1080" xmlns="http://www.w3.org/2000/svg" role="img" aria-labelledby="t2 d2">
  <title id="t2">Cartoon Wooden Billboard (transparent center)</title>
  <desc id="d2">Мультяшна дерев’яна рамка з дошок, болтами і мотузками; центр прозорий</desc>

  <defs>
    <!-- Маска: біле = виріз -->
    <mask id="window">
      <rect width="1920" height="1080" fill="black"></rect>
      <rect x="200" y="130" width="1520" height="820" rx="22" fill="white"></rect>
    </mask>

    <!-- Текстура дерева -->
    <linearGradient id="wood" x1="0" y1="0" x2="0" y2="1">
      <stop offset="0" stop-color="#C8812A"></stop>
      <stop offset="0.5" stop-color="#B06B1E"></stop>
      <stop offset="1" stop-color="#8E4F13"></stop>
    </linearGradient>

    <!-- Нервюри дерева -->
    <pattern id="grain" width="120" height="60" patternUnits="userSpaceOnUse">
      <path d="M0,40 q30,-28 60,0 t60,0 t60,0" fill="none" stroke="#6F3C0F" stroke-opacity=".35" stroke-width="6"></path>
      <path d="M-30,20 q30,-18 60,0 t60,0 t60,0" fill="none" stroke="#6F3C0F" stroke-opacity=".28" stroke-width="4"></path>
    </pattern>

    <filter id="woodShadow" x="-20%" y="-20%" width="140%" height="140%">
      <feDropShadow dx="0" dy="10" stdDeviation="12" flood-color="#000" flood-opacity=".35"></feDropShadow>
    </filter>
  </defs>

  <!-- Опори-коли -->
  <g filter="url(#woodShadow)">
    <rect x="620" y="910" width="60" height="160" rx="12" fill="#7B4A16" stroke="#3E2209" stroke-width="6"></rect>
    <rect x="1240" y="910" width="60" height="160" rx="12" fill="#7B4A16" stroke="#3E2209" stroke-width="6"></rect>
  </g>

  <!-- Рамка з дощок, центр вирізано -->
  <g mask="url(#window)" filter="url(#woodShadow)">
    <!-- Масив дошок: суцільний прямокутник + текстура -->
    <rect x="120" y="60" width="1680" height="960" rx="26" fill="url(#wood)"></rect>
    <rect x="120" y="60" width="1680" height="960" rx="26" fill="url(#grain)"></rect>

    <!-- Темний контур -->
    <rect x="120" y="60" width="1680" height="960" rx="26" fill="none" stroke="#3B200A" stroke-width="12"></rect>

    <!-- Болти по кутах -->
    <g fill="#C7B08A" stroke="#3B200A" stroke-width="6">
      <circle cx="170" cy="110" r="14"></circle><circle cx="1750" cy="110" r="14"></circle>
      <circle cx="170" cy="970" r="14"></circle><circle cx="1750" cy="970" r="14"></circle>
    </g>

    <!-- Мотузки зверху (мультяшні) -->
    <g fill="none" stroke="#D7B559" stroke-width="16" stroke-linecap="round" stroke-opacity=".95">
      <path d="M300 40 C480 140, 620 140, 780 40"></path>
      <path d="M1140 40 C1320 140, 1460 140, 1620 40"></path>
    </g>
    <g fill="#3B200A">
      <circle cx="300" cy="40" r="10"></circle><circle cx="780" cy="40" r="10"></circle>
      <circle cx="1140" cy="40" r="10"></circle></g></g></svg>